PathFileType	4	(X/Y/Z)	D:\Share\Shared_Data\Ergonomics\Sit To Stand Pertubation\S1\S1 Cal 01.trc
DataRate	CameraRate	NumFrames	NumMarkers	Units	OrigDataRate	OrigDataStartFrame	OrigNumFrames	
100	100	9	21	mm	100	208	237
Frame#	Time	R_ASIS			R_Pelvis			V_Sacral			L_Pelvis			L_ASIS			Clavical			R_Acromium			L_Acromium			Sternum			Torso			R_Thigh_Med			R_Thigh_Lat			R_Thigh			R_Shank_Med			R_Shank_Lat			R_Shank			R_Heel			R_Toe			RAJC			RHJC			RKJC			
		X1	Y1	Z1	X2	Y2	Z2	X3	Y3	Z3	X4	Y4	Z4	X5	Y5	Z5	X6	Y6	Z6	X7	Y7	Z7	X8	Y8	Z8	X9	Y9	Z9	X10	Y10	Z10	X11	Y11	Z11	X12	Y12	Z12	X13	Y13	Z13	X14	Y14	Z14	X15	Y15	Z15	X16	Y16	Z16	X17	Y17	Z17	X18	Y18	Z18	X19	Y19	Z19	X20	Y20	Z20	X21	Y21	Z21	

208	2.07	445.04269	912.41663	68.86438	379.12326	911.1026	95.878838	301.38437	906.42133	-61.805206	419.16501	900.35651	-191.89799	497.88962	899.85449	-128.85263	444.49753	1253.9647	-45.484703	354.25085	1317.0515	95.509583	391.2449	1317.9211	-186.91245	414.80939	1263.9695	54.003162	447.77606	1258.4602	-106.60475	334.8132	419.35129	5.3066497	361.81204	441.34094	131.28317	450.22803	598.86206	76.229683	330.01245	95.983826	51.111969	309.51059	96.055161	130.11623	325.04471	307.95206	150.76244	263.30017	39.22963	76.005753	469.49704	50.146725	91.473129	319.76152	96.0194935	90.6140995	401.5259061	838.2962773	33.36389316	348.31262	430.346115	68.29490985
209	2.08	445.28104	912.40521	68.814415	379.35693	911.11707	95.827057	301.54343	906.46295	-61.783756	419.32315	900.36987	-191.93274	497.91156	899.7774	-128.96324	444.86682	1253.9438	-45.700817	354.67236	1317.1685	95.368546	391.59946	1317.9944	-187.15292	415.1958	1264.0201	53.843102	448.12616	1258.4131	-106.79675	334.87668	419.38251	5.2922421	361.85419	441.36432	131.24657	450.31406	598.83118	76.211761	330.0224	96.018074	51.11343	309.47754	96.084076	130.12022	325.07043	307.98816	150.77589	263.30017	39.23687	75.936996	469.50705	50.150101	91.455788	319.74997	96.051075	90.616825	401.695241	838.3013371	33.37545884	348.365435	430.373415	68.26940605
210	2.09	445.51794	912.38953	68.740929	379.46683	911.13257	95.683922	301.73523	906.53229	-61.834595	419.47717	900.41797	-191.81218	498.05469	899.72791	-129.06131	445.21478	1253.9385	-45.881851	355.11765	1317.2559	95.191193	391.97971	1317.9385	-187.37985	415.66388	1264.0529	53.655457	448.54828	1258.3597	-106.98909	334.93634	419.39404	5.2812624	361.89832	441.37897	131.23669	450.36548	598.79315	76.166267	330.04813	96.031372	51.126076	309.48019	96.109299	130.11749	325.07486	308.0192	150.75696	263.31046	39.259991	75.9403	469.51404	50.117458	91.422874	319.76416	96.0703355	90.621783	401.8729357	838.311741	33.32175856	348.41733	430.386505	68.2589762
211	2.1	445.76373	912.38391	68.677635	379.78412	911.16089	95.599998	301.91531	906.57129	-61.832832	419.66428	900.3988	-191.84056	497.31424	899.54968	-129.30257	445.61053	1253.9231	-46.075451	355.54059	1317.3503	95.034592	392.39001	1317.8733	-187.5966	416.05426	1264.074	53.409698	448.93518	1258.3229	-107.17292	335.00638	419.39423	5.2878442	361.94748	441.3912	131.24098	450.46893	598.76862	76.13855	330.0564	96.049469	51.126217	309.50153	96.141418	130.12083	325.10666	308.05515	150.73187	263.32959	39.275696	75.967712	469.5246	50.118378	91.425064	319.778965	96.0954435	90.6235235	401.9636135	838.3576117	33.54996506	348.47693	430.392715	68.2644121
212	2.11	446.05276	912.38635	68.679543	380.01596	911.19574	95.557121	302.10651	906.62152	-61.823574	419.90842	900.39325	-191.83307	497.5116	899.50238	-129.34825	446.00742	1253.8905	-46.258598	356.03934	1317.4091	94.785088	392.78253	1317.7994	-187.80864	416.44415	1264.0627	53.19215	449.26193	1258.3159	-107.37661	335.08145	419.41827	5.3106456	361.98495	441.41583	131.24223	450.62134	598.75427	76.126793	330.08932	96.069313	51.1418	309.52832	96.165268	130.13748	325.11041	308.0838	150.72044	263.33868	39.297562	75.949089	469.52383	50.117245	91.452362	319.80882	96.1172905	90.63964	402.1922581	838.3680518	33.57476259	348.5332	430.41705	68.2764378
213	2.12	446.2739	912.38611	68.647682	380.1951	911.22235	95.493202	302.34109	906.6886	-61.855694	420.12476	900.38782	-191.86891	498.41196	899.51697	-129.32164	446.45203	1253.8796	-46.451504	356.45071	1317.4906	94.540359	393.19705	1317.7521	-188.04561	416.8244	1264.1182	52.974865	449.69296	1258.2883	-107.5827	335.13202	419.4545	5.2949071	362.02859	441.43738	131.22014	450.71548	598.73987	76.127785	330.1257	96.108879	51.152569	309.53308	96.181313	130.14702	325.14307	308.11826	150.72531	263.34567	39.334728	75.922173	469.49884	50.10334	91.417542	319.82939	96.145096	90.6497945	402.4505915	838.3414854	33.35201024	348.580305	430.44594	68.25752355
214	2.13	446.49826	912.36743	68.619354	380.45798	911.25067	95.521851	302.61801	906.73663	-61.874619	420.32388	900.35889	-191.9178	498.61014	899.46741	-129.35371	446.82144	1253.8647	-46.619675	356.85449	1317.5383	94.27829	393.64255	1317.7382	-188.3109	417.22095	1264.1378	52.773556	450.15918	1258.2939	-107.77245	335.17987	419.45071	5.2679477	362.04819	441.44434	131.26198	450.80075	598.71997	76.119293	330.14511	96.131195	51.163757	309.54587	96.219688	130.14621	325.18073	308.17804	150.74327	263.36176	39.322647	75.893829	469.55637	50.111324	91.427551	319.84549	96.1754415	90.6549835	402.6500534	838.3440057	33.33410628	348.61403	430.447525	68.26496385
215	2.14	446.73788	912.36298	68.56488	380.74057	911.28717	95.470573	302.86142	906.75793	-61.934933	420.58118	900.33917	-191.8963	498.9252	899.43787	-129.317	447.17862	1253.8535	-46.797695	357.21881	1317.5872	94.065506	394.12265	1317.7561	-188.50842	417.62225	1264.1949	52.601517	450.63263	1258.3247	-107.93703	335.2225	419.45862	5.2964015	362.04739	441.47128	131.27415	450.93677	598.72528	76.107178	330.16678	96.153099	51.165733	309.52893	96.255005	130.14899	325.18304	308.22867	150.78951	263.36914	39.356327	75.910698	469.52692	50.105793	91.419334	319.847855	96.204052	90.6573615	402.8774189	838.3671964	33.27221752	348.634945	430.46495	68.28527575
216	2.15	446.99811	912.36102	68.550774	381.02417	911.32526	95.431358	303.13446	906.8739	-61.958832	420.81616	900.32678	-191.9335	499.22485	899.38995	-129.32642	447.55624	1253.8607	-46.97514	357.60211	1317.6306	93.853394	394.616	1317.767	-188.68227	418.00928	1264.2324	52.388699	451.03421	1258.3016	-108.15073	335.27695	419.51227	5.3076925	362.0329	441.49875	131.28455	450.98376	598.70312	76.111694	330.20578	96.208801	51.181854	309.55966	96.307907	130.15079	325.14774	308.27332	150.75433	263.37283	39.37151	75.898628	469.52332	50.08284	91.429031	319.88272	96.258354	90.666322	403.0836185	838.3981253	33.24665344	348.654925	430.50551	68.29612125
